<svg width="26" height="44" viewBox="0 0 26 44" fill="none" xmlns="http://www.w3.org/2000/svg">
<path d="M1.58116 18.9666C0.909393 19.6385 0.532013 20.5498 0.532013 21.5C0.532013 22.4502 0.909393 23.3614 1.58116 24.0334L19.4978 41.9501C19.8284 42.2923 20.2238 42.5653 20.661 42.7531C21.0981 42.9409 21.5683 43.0398 22.0441 43.0439C22.5199 43.048 22.9918 42.9574 23.4322 42.7772C23.8725 42.597 24.2726 42.3309 24.6091 41.9945C24.9455 41.658 25.2116 41.258 25.3918 40.8176C25.5719 40.3772 25.6626 39.9053 25.6585 39.4296C25.6543 38.9538 25.5555 38.4836 25.3677 38.0464C25.1799 37.6092 24.9069 37.2138 24.5647 36.8832L6.648 18.9666C5.97602 18.2948 5.06475 17.9174 4.11458 17.9174C3.16441 17.9174 2.25314 18.2948 1.58116 18.9666Z" fill="#93C5FD"/>
<path d="M1.58116 24.0774C2.25314 24.7492 3.16441 25.1266 4.11458 25.1266C5.06475 25.1266 5.97602 24.7492 6.648 24.0774L24.5647 6.16077C24.9069 5.83022 25.1799 5.43481 25.3677 4.99763C25.5555 4.56045 25.6543 4.09025 25.6585 3.61446C25.6626 3.13866 25.5719 2.66681 25.3918 2.22643C25.2116 1.78605 24.9455 1.38597 24.6091 1.04952C24.2726 0.71307 23.8725 0.446997 23.4322 0.266824C22.9918 0.0866505 22.5199 -0.0040132 22.0441 0.00012133C21.5684 0.00425586 21.0981 0.103107 20.661 0.290906C20.2238 0.478705 19.8284 0.751691 19.4978 1.09394L1.58116 19.0106C0.909393 19.6826 0.532013 20.5938 0.532013 21.544C0.532013 22.4942 0.909394 23.4055 1.58116 24.0774Z" fill="#3B82F6"/>
<path d="M1.58116 41.9949C2.25314 42.6666 3.16441 43.044 4.11458 43.044C5.06475 43.044 5.97602 42.6666 6.648 41.9949L24.5647 24.0782C24.9069 23.7476 25.1799 23.3522 25.3677 22.9151C25.5555 22.4779 25.6543 22.0077 25.6585 21.5319C25.6626 21.0561 25.5719 20.5842 25.3918 20.1439C25.2116 19.7035 24.9455 19.3034 24.6091 18.9669C24.2726 18.6305 23.8725 18.3644 23.4322 18.1842C22.9918 18.0041 22.5199 17.9134 22.0441 17.9175C21.5684 17.9217 21.0981 18.0205 20.661 18.2083C20.2238 18.3961 19.8284 18.6691 19.4978 19.0114L1.58116 36.928C0.909393 37.6 0.532013 38.5113 0.532013 39.4614C0.532013 40.4116 0.909394 41.3229 1.58116 41.9949Z" fill="#3B82F6"/>
</svg>
